<svg width="37" height="37" viewBox="0 0 37 37" fill="none" xmlns="http://www.w3.org/2000/svg">
<path d="M9.22974 33.7395C9.5404 33.7395 9.79224 33.4877 9.79224 33.177C9.79224 32.8663 9.5404 32.6145 9.22974 32.6145C8.91908 32.6145 8.66724 32.8663 8.66724 33.177C8.66724 33.4877 8.91908 33.7395 9.22974 33.7395Z" fill="#22262A" stroke="#22262A" stroke-width="2" stroke-miterlimit="10" stroke-linecap="round" stroke-linejoin="round"/>
<path d="M17.1047 33.7395C17.4154 33.7395 17.6672 33.4877 17.6672 33.177C17.6672 32.8663 17.4154 32.6145 17.1047 32.6145C16.7941 32.6145 16.5422 32.8663 16.5422 33.177C16.5422 33.4877 16.7941 33.7395 17.1047 33.7395Z" fill="#22262A" stroke="#22262A" stroke-width="2" stroke-miterlimit="10" stroke-linecap="round" stroke-linejoin="round"/>
<path d="M3.04224 15.7395H5.29224L7.54224 29.2395H18.7922L21.0422 19.1145H6.41724" stroke="#22262A" stroke-width="2" stroke-linecap="round" stroke-linejoin="round"/>
<circle cx="24.0422" cy="12.7395" r="11" fill="#FB7181" stroke="white" stroke-width="2"/>
<path d="M21.5758 15.3695C21.8025 15.1895 21.9058 15.1062 21.8858 15.1195C22.5391 14.5795 23.0525 14.1362 23.4258 13.7895C23.8058 13.4428 24.1258 13.0795 24.3858 12.6995C24.6458 12.3195 24.7758 11.9495 24.7758 11.5895C24.7758 11.3162 24.7125 11.1028 24.5858 10.9495C24.4591 10.7962 24.2691 10.7195 24.0158 10.7195C23.7625 10.7195 23.5625 10.8162 23.4158 11.0095C23.2758 11.1962 23.2058 11.4628 23.2058 11.8095H21.5558C21.5691 11.2428 21.6891 10.7695 21.9158 10.3895C22.1491 10.0095 22.4525 9.7295 22.8258 9.5495C23.2058 9.3695 23.6258 9.2795 24.0858 9.2795C24.8791 9.2795 25.4758 9.48283 25.8758 9.8895C26.2825 10.2962 26.4858 10.8262 26.4858 11.4795C26.4858 12.1928 26.2425 12.8562 25.7558 13.4695C25.2691 14.0762 24.6491 14.6695 23.8958 15.2495H26.5958V16.6395H21.5758V15.3695Z" fill="white"/>
</svg>
